<svg width="136" height="24" viewBox="0 0 136 24" fill="none" xmlns="http://www.w3.org/2000/svg">
<path d="M76.5033 0.155199C75.4419 0.775536 72.6152 1.62145 70.8388 1.84703C70.2578 1.92598 70.2466 1.92598 70.2466 2.30946C70.2466 2.64783 70.3025 2.7155 70.66 2.86213C71.5203 3.22305 72.0119 3.99001 72.3024 5.43371C72.4588 6.17811 72.4811 7.49774 72.4811 14.9982C72.4811 21.9121 72.5147 23.6829 72.6264 23.6491C72.6934 23.6152 73.7436 23.3784 74.9503 23.1077L77.1401 22.634L77.8663 22.9836C79.0059 23.525 79.9444 23.7055 81.2516 23.6265C84.2235 23.4461 86.4692 22.0926 87.5418 19.8368C88.268 18.2916 88.4021 17.5923 88.4021 15.3817C88.4021 13.7124 88.3685 13.3515 88.1451 12.562C87.2178 9.33619 84.9721 7.66692 81.5533 7.65564C80.3243 7.65564 79.0171 7.90378 78.2685 8.28726C77.978 8.43389 77.7099 8.55795 77.6764 8.55795C77.6429 8.55795 77.6205 6.70822 77.6205 4.45245V0.346939L77.3412 0.166477C77.006 -0.047821 76.872 -0.0590992 76.5033 0.155199ZM80.9611 9.73095C81.7655 10.1596 82.3242 11.0393 82.7264 12.5056C83.0169 13.5883 83.0169 18.0322 82.7152 19.3405C82.2125 21.5512 80.9723 22.7129 79.531 22.3182C78.9948 22.1715 78.235 21.5174 77.9222 20.9196C77.6764 20.4684 77.6764 20.3669 77.6429 15.5508L77.6094 10.6445L78.0339 10.2272C78.2685 9.99037 78.6596 9.73095 78.9054 9.62945C79.4528 9.42642 80.4584 9.47154 80.9611 9.73095Z" fill="#1F3F27"/>
<path d="M8.45115 1.67786C4.49606 2.39971 1.90402 4.61036 0.708555 8.27599C-0.118215 10.8025 -0.229941 14.1748 0.418069 16.7464C1.16663 19.7128 2.76431 21.7655 5.27814 22.9949C6.67471 23.6829 7.66907 23.9085 9.53489 23.9875C11.7694 24.0664 13.5905 23.604 14.9536 22.5889L15.4899 22.1941L16.6518 22.9385C17.6015 23.5363 17.9031 23.6716 18.283 23.6716H18.7411V18.0661V12.4717L15.0318 12.5394C12.9984 12.5845 10.6633 12.6184 9.83655 12.6184H8.35059V13.2161V13.8252L9.78068 13.8929C12.0822 14.0057 13.0431 14.3891 13.5458 15.393C13.7469 15.7877 13.7693 16.1035 13.8028 18.3819L13.8363 20.9422L13.49 21.3369C12.7861 22.149 10.9761 22.2054 9.50137 21.4723C7.06575 20.2542 5.658 17.1073 5.47924 12.5056C5.37869 9.83248 5.75856 7.67822 6.67471 5.78337C7.33389 4.41862 8.17183 3.53887 9.18854 3.15539C9.97062 2.86214 11.2108 2.8283 11.9258 3.08772C14.0486 3.85468 15.3558 6.77591 14.9536 9.85504C14.8754 10.3964 14.8419 10.8589 14.8642 10.8814C14.8865 10.904 15.0988 10.9378 15.3223 10.9604L15.7468 10.9829L17.311 8.2196C18.1713 6.69695 18.9087 5.36605 18.931 5.26454C19.0092 4.99384 17.7579 3.6855 16.8306 3.07644C16.0038 2.53505 15.2664 2.20796 14.1045 1.88088C13.4788 1.70042 12.8867 1.64402 11.1437 1.62146C9.94827 1.59891 8.73046 1.62146 8.45115 1.67786Z" fill="#1F3F27"/>
<path d="M113.596 3.79827C113.596 4.02385 111.842 5.64801 110.915 6.30218C109.853 7.03531 108.39 7.76843 107.597 7.98273L107.116 8.11808V8.78353V9.46026H108.122H109.127V14.6147C109.127 17.5698 109.183 20.0962 109.239 20.5136C109.585 22.7468 110.892 23.8408 113.373 23.9762C115.618 24.1002 117.473 23.3333 118.523 21.8557C118.736 21.5512 118.736 21.5399 118.501 21.1452L118.266 20.7504L117.73 21.0211C116.501 21.6527 115.697 21.6302 115.049 20.9421C114.345 20.209 114.334 20.0624 114.289 14.5019L114.255 9.46026H116.054H117.842V8.78353V8.1068H116.054H114.267V6.09916V4.09152L113.931 3.89978C113.753 3.78699 113.596 3.74188 113.596 3.79827Z" fill="#1F3F27"/>
<path d="M59.2193 6.64055C58.3478 6.76461 57.1077 7.18193 56.2251 7.62181C52.7057 9.41515 48.9741 13.8929 47.354 18.3142L47.0189 19.2165L47.0077 13.6673V8.11808L46.6837 7.8925L46.3708 7.66692L45.7675 7.98273C44.6056 8.61435 42.3934 9.24597 40.0583 9.62945C39.645 9.69712 39.6338 9.7084 39.6338 10.137C39.6338 10.5318 39.6673 10.5882 39.8908 10.5882C40.36 10.5882 41.0751 11.1634 41.3655 11.7724C41.8013 12.6635 41.8683 13.3402 41.8683 16.6223C41.8683 20.3444 41.7789 20.773 40.8404 21.8106C40.5276 22.1603 40.1254 22.5212 39.9578 22.6114C39.6785 22.7468 39.6338 22.8483 39.6338 23.2205V23.6716H44.3598H49.097L49.0076 23.1302C48.8623 22.2618 48.8959 20.8068 49.0746 19.9496C49.2757 18.9796 49.6444 18.0322 50.393 16.5096C51.9236 13.3966 54.1693 11.0731 56.6049 10.1032C57.3535 9.79863 57.5881 9.75351 58.5713 9.75351C60.0237 9.75351 60.7164 9.97909 61.4203 10.7009C61.9454 11.2198 62.2136 11.795 62.37 12.7424L62.4482 13.1485L61.789 13.2274C58.2138 13.6447 55.3759 14.9756 54.1693 16.8028C53.566 17.7051 53.3761 18.4044 53.3761 19.6564C53.3761 20.5587 53.4207 20.7617 53.7001 21.3595C54.4263 22.8934 55.9569 23.6716 58.2361 23.6716C59.655 23.6716 61.3756 23.0851 62.2359 22.3182L62.6493 21.9572V22.4874C62.6493 22.7806 62.7387 23.1641 62.8392 23.3445C63.018 23.6491 63.0738 23.6716 63.5431 23.604C63.8224 23.5701 65.353 23.3784 66.9507 23.1754L69.8556 22.8144V22.3182C69.8556 21.8332 69.8444 21.8106 69.4534 21.7542C68.8836 21.6527 68.4032 21.2692 68.1015 20.6489C67.8445 20.1301 67.8445 20.0398 67.7775 15.6636C67.744 12.968 67.6769 11.0731 67.5987 10.8588C66.9842 9.08806 65.5988 7.81355 63.5431 7.12554C61.9454 6.59543 60.5935 6.43753 59.2193 6.64055ZM62.6493 17.8066V20.7391L62.18 21.0437C61.789 21.3144 61.5991 21.3595 60.9287 21.3595C60.2695 21.3595 60.0684 21.3144 59.7556 21.0888C59.197 20.6827 58.8283 19.7804 58.8171 18.7879C58.8059 17.378 59.2863 16.408 60.3477 15.6749C60.8505 15.3253 61.9789 14.8854 62.4035 14.8741H62.6493V17.8066Z" fill="#1F3F27"/>
<path d="M26.9976 7.82483C24.0369 8.30982 22.428 9.53922 22.428 11.3213C22.428 11.6709 22.4951 12.0882 22.5844 12.2574C23.2771 13.6109 25.277 13.8139 26.3608 12.6522C26.5172 12.483 26.9641 11.7048 27.3328 10.9265C28.2825 8.96399 28.9081 8.49028 29.8801 8.96399C30.517 9.29108 30.8075 9.97909 30.9415 11.5581C31.0086 12.2687 31.0309 12.9116 30.9974 12.9905C30.9639 13.0808 30.5281 13.1823 29.8019 13.2838C25.8692 13.7688 23.2101 15.2238 22.1152 17.457C21.713 18.2803 21.7018 18.3367 21.7018 19.5436C21.7018 20.6151 21.7353 20.8745 21.97 21.382C22.2828 22.0926 23.0202 22.8032 23.8023 23.1641C25.7128 24.0438 28.8523 23.7055 30.4052 22.4422C30.6399 22.2505 30.8745 22.0926 30.908 22.0926C30.9415 22.0926 30.9639 22.3069 30.9415 22.5663C30.9192 22.9385 30.9639 23.119 31.165 23.3558L31.4219 23.6604L34.7737 23.243L38.1255 22.8257V22.3182C38.1255 21.8332 38.1143 21.8219 37.7009 21.7317C37.0976 21.6076 36.796 21.3707 36.4608 20.7504L36.1703 20.1977V16.3291C36.1703 12.2461 36.0921 11.231 35.7122 10.3739C35.2541 9.30236 34.0252 8.37749 32.5504 7.96017C31.5002 7.66692 28.3942 7.58797 26.9976 7.82483ZM30.9304 17.5021L30.908 20.6827L30.6399 20.9309C30.4835 21.0662 30.1706 21.2354 29.936 21.2918C28.8187 21.6076 27.9361 21.2692 27.4669 20.3444C27.2099 19.8594 27.1764 19.6451 27.1764 18.7089C27.1764 17.7164 27.2099 17.5698 27.5451 16.8818C28.0031 15.9343 28.7517 15.235 29.9583 14.6485C30.4499 14.4004 30.8745 14.2312 30.908 14.2538C30.9304 14.2876 30.9415 15.7426 30.9304 17.5021Z" fill="#1F3F27"/>
<path d="M95.9771 7.76843C92.737 8.21959 91.0276 9.46026 91.0276 11.3438C91.0276 12.1108 91.2511 12.5507 91.8767 13.0244C92.2119 13.2838 92.4242 13.3515 93.0387 13.3853C94.4129 13.4643 94.9269 13.0131 95.9659 10.8476C96.6586 9.39259 97.0273 8.96399 97.6976 8.82865C98.111 8.74969 98.759 9.03167 99.0048 9.39259C99.3065 9.8663 99.5076 10.8476 99.5411 11.998L99.5746 13.1259L98.4574 13.2612C94.8151 13.7237 91.9885 15.1335 90.8712 17.0622C90.1897 18.2352 90.0444 20.1752 90.5472 21.3256C91.2287 22.837 92.8264 23.6716 95.0833 23.6716C96.5357 23.6716 98.4239 23.04 99.1724 22.2843L99.5188 21.9572V22.4648C99.5188 22.9723 99.8093 23.6716 100.022 23.6604C100.089 23.6604 101.619 23.4686 103.429 23.243L106.725 22.8257V22.3182C106.725 21.8219 106.725 21.8219 106.256 21.7204C105.954 21.664 105.653 21.4948 105.429 21.2692C104.725 20.5587 104.725 20.5699 104.658 15.5509L104.602 10.9829L104.289 10.3513C103.731 9.18957 102.636 8.37749 101.027 7.92634C100.256 7.71204 97.1055 7.61053 95.9771 7.76843ZM99.5299 17.4795L99.5188 20.6827L99.2395 20.9309C98.6697 21.4384 97.2954 21.5625 96.6809 21.1564C96.5245 21.0549 96.2564 20.7279 96.0888 20.4346C95.7983 19.9383 95.776 19.803 95.776 18.7089C95.776 17.6938 95.8095 17.4457 96.0441 16.9833C96.5134 16.0133 97.3066 15.2576 98.435 14.7049C98.9937 14.4342 99.4741 14.2199 99.4964 14.2425C99.5188 14.2651 99.5299 15.72 99.5299 17.4795Z" fill="#1F3F27"/>
<path d="M126.177 7.76842C123.305 8.28725 121.171 10.0806 120.3 12.7198C119.942 13.8139 119.842 14.4681 119.842 16.002C119.831 19.1826 120.836 21.3595 122.992 22.7693C123.774 23.2769 125.037 23.728 126.221 23.9085C127.428 24.1002 129.752 23.9762 130.802 23.6716C133.349 22.9385 135.048 21.2016 135.74 18.63C136.087 17.3442 136.087 14.8741 135.74 13.4755C135.048 10.6896 133.171 8.69329 130.523 7.96016C129.64 7.71203 127.093 7.59924 126.177 7.76842ZM128.478 9.03166C129.819 9.4377 130.523 11.4679 130.612 15.2125C130.724 19.2954 130.053 21.9008 128.746 22.5325C127.294 23.2543 126.042 22.2167 125.495 19.8368C125.238 18.7315 125.137 14.7613 125.327 13.2274C125.562 11.3438 125.987 10.1708 126.702 9.48281C127.26 8.94143 127.752 8.80608 128.478 9.03166Z" fill="#1F3F27"/>
</svg>
