<svg width="1624" height="450" viewBox="0 0 1624 450" fill="none" xmlns="http://www.w3.org/2000/svg">
<path d="M913 2.33335C900.333 9.66668 866.6 19.6667 845.4 22.3334C838.467 23.2667 838.333 23.2667 838.333 27.8C838.333 31.8 839 32.6 843.267 34.3334C853.533 38.6 859.4 47.6667 862.867 64.7334C864.733 73.5334 865 89.1334 865 177.8C865 259.533 865.4 280.467 866.733 280.067C867.533 279.667 880.067 276.867 894.467 273.667L920.6 268.067L929.267 272.2C942.867 278.6 954.067 280.733 969.667 279.8C1005.13 277.667 1031.93 261.667 1044.73 235C1053.4 216.733 1055 208.467 1055 182.333C1055 162.6 1054.6 158.333 1051.93 149C1040.87 110.867 1014.07 91.1334 973.267 91C958.6 91 943 93.9334 934.067 98.4667C930.6 100.2 927.4 101.667 927 101.667C926.6 101.667 926.333 79.8 926.333 53.1334V4.60002L923 2.46668C919 -0.0666508 917.4 -0.199984 913 2.33335ZM966.2 115.533C975.8 120.6 982.467 131 987.267 148.333C990.733 161.133 990.733 213.667 987.133 229.133C981.133 255.267 966.333 269 949.133 264.333C942.733 262.6 933.667 254.867 929.933 247.8C927 242.467 927 241.267 926.6 184.333L926.2 126.333L931.267 121.4C934.067 118.6 938.733 115.533 941.667 114.333C948.2 111.933 960.2 112.467 966.2 115.533Z" fill="#1F3F27"/>
<path d="M100.867 20.3335C53.6666 28.8668 22.7332 55.0001 8.46657 98.3335C-1.40009 128.2 -2.73343 168.067 4.99991 198.467C13.9332 233.533 32.9999 257.8 62.9999 272.333C79.6666 280.467 91.5332 283.133 113.8 284.067C140.467 285 162.2 279.533 178.467 267.533L184.867 262.867L198.733 271.667C210.067 278.733 213.667 280.333 218.2 280.333H223.667V214.067V147.933L179.4 148.733C155.133 149.267 127.267 149.667 117.4 149.667H99.6666V156.733V163.933L116.733 164.733C144.2 166.067 155.667 170.6 161.667 182.467C164.067 187.133 164.333 190.867 164.733 217.8L165.133 248.067L161 252.733C152.6 262.333 131 263 113.4 254.333C84.3332 239.933 67.5332 202.733 65.3999 148.333C64.1999 116.733 68.7332 91.2668 79.6666 68.8668C87.5332 52.7335 97.5332 42.3335 109.667 37.8001C119 34.3335 133.8 33.9335 142.333 37.0001C167.667 46.0668 183.267 80.6001 178.467 117C177.533 123.4 177.133 128.867 177.4 129.133C177.667 129.4 180.2 129.8 182.867 130.067L187.933 130.333L206.6 97.6668C216.867 79.6668 225.667 63.9335 225.933 62.7335C226.867 59.5335 211.933 44.0668 200.867 36.8668C191 30.4668 182.2 26.6001 168.333 22.7335C160.867 20.6001 153.8 19.9335 133 19.6668C118.733 19.4001 104.2 19.6668 100.867 20.3335Z" fill="#1F3F27"/>
<path d="M1355.67 45.4001C1355.67 48.0667 1334.73 67.2667 1323.67 75.0001C1311 83.6667 1293.53 92.3334 1284.07 94.8667L1278.33 96.4667V104.333V112.333H1290.33H1302.33V173.267C1302.33 208.2 1303 238.067 1303.67 243C1307.8 269.4 1323.4 282.333 1353 283.933C1379.8 285.4 1401.93 276.333 1414.47 258.867C1417 255.267 1417 255.133 1414.2 250.467L1411.4 245.8L1405 249C1390.33 256.467 1380.73 256.2 1373 248.067C1364.6 239.4 1364.47 237.667 1363.93 171.933L1363.53 112.333H1385H1406.33V104.333V96.3334H1385H1363.67V72.6001V48.8667L1359.67 46.6001C1357.53 45.2667 1355.67 44.7334 1355.67 45.4001Z" fill="#1F3F27"/>
<path d="M706.733 79.0001C696.333 80.4667 681.533 85.4001 671 90.6001C629 111.8 584.467 164.733 565.133 217L561.133 227.667L561 162.067V96.4667L557.133 93.8001L553.4 91.1334L546.2 94.8667C532.333 102.333 505.933 109.8 478.067 114.333C473.133 115.133 473 115.267 473 120.333C473 125 473.4 125.667 476.067 125.667C481.667 125.667 490.2 132.467 493.667 139.667C498.867 150.2 499.667 158.2 499.667 197C499.667 241 498.6 246.067 487.4 258.333C483.667 262.467 478.867 266.733 476.867 267.8C473.533 269.4 473 270.6 473 275V280.333H529.4H585.933L584.867 273.933C583.133 263.667 583.533 246.467 585.667 236.333C588.067 224.867 592.467 213.667 601.4 195.667C619.667 158.867 646.467 131.4 675.533 119.933C684.467 116.333 687.267 115.8 699 115.8C716.333 115.8 724.6 118.467 733 127C739.267 133.133 742.467 139.933 744.333 151.133L745.267 155.933L737.4 156.867C694.733 161.8 660.867 177.533 646.467 199.133C639.267 209.8 637 218.067 637 232.867C637 243.533 637.533 245.933 640.867 253C649.533 271.133 667.8 280.333 695 280.333C711.933 280.333 732.467 273.4 742.733 264.333L747.667 260.067V266.333C747.667 269.8 748.733 274.333 749.933 276.467C752.067 280.067 752.733 280.333 758.333 279.533C761.667 279.133 779.933 276.867 799 274.467L833.667 270.2V264.333C833.667 258.6 833.533 258.333 828.867 257.667C822.067 256.467 816.333 251.933 812.733 244.6C809.667 238.467 809.667 237.4 808.867 185.667C808.467 153.8 807.667 131.4 806.733 128.867C799.4 107.933 782.867 92.8667 758.333 84.7334C739.267 78.4667 723.133 76.6001 706.733 79.0001ZM747.667 211V245.667L742.067 249.267C737.4 252.467 735.133 253 727.133 253C719.267 253 716.867 252.467 713.133 249.8C706.467 245 702.067 234.333 701.933 222.6C701.8 205.933 707.533 194.467 720.2 185.8C726.2 181.667 739.667 176.467 744.733 176.333H747.667V211Z" fill="#1F3F27"/>
<path d="M322.2 93.0001C286.867 98.7334 267.667 113.267 267.667 134.333C267.667 138.467 268.467 143.4 269.533 145.4C277.8 161.4 301.667 163.8 314.6 150.067C316.467 148.067 321.8 138.867 326.2 129.667C337.533 106.467 345 100.867 356.6 106.467C364.2 110.333 367.667 118.467 369.267 137.133C370.067 145.533 370.333 153.133 369.933 154.067C369.533 155.133 364.333 156.333 355.667 157.533C308.733 163.267 277 180.467 263.933 206.867C259.133 216.6 259 217.267 259 231.533C259 244.2 259.4 247.267 262.2 253.267C265.933 261.667 274.733 270.067 284.067 274.333C306.867 284.733 344.333 280.733 362.867 265.8C365.667 263.533 368.467 261.667 368.867 261.667C369.267 261.667 369.533 264.2 369.267 267.267C369 271.667 369.533 273.8 371.933 276.6L375 280.2L415 275.267L455 270.333V264.333C455 258.6 454.867 258.467 449.933 257.4C442.733 255.933 439.133 253.133 435.133 245.8L431.667 239.267V193.533C431.667 145.267 430.733 133.267 426.2 123.133C420.733 110.467 406.067 99.5334 388.467 94.6001C375.933 91.1334 338.867 90.2001 322.2 93.0001ZM369.133 207.4L368.867 245L365.667 247.933C363.8 249.533 360.067 251.533 357.267 252.2C343.933 255.933 333.4 251.933 327.8 241C324.733 235.267 324.333 232.733 324.333 221.667C324.333 209.933 324.733 208.2 328.733 200.067C334.2 188.867 343.133 180.6 357.533 173.667C363.4 170.733 368.467 168.733 368.867 169C369.133 169.4 369.267 186.6 369.133 207.4Z" fill="#1F3F27"/>
<path d="M1145.4 92.3334C1106.73 97.6667 1086.33 112.333 1086.33 134.6C1086.33 143.667 1089 148.867 1096.47 154.467C1100.47 157.533 1103 158.333 1110.33 158.733C1126.73 159.667 1132.87 154.333 1145.27 128.733C1153.53 111.533 1157.93 106.467 1165.93 104.867C1170.87 103.933 1178.6 107.267 1181.53 111.533C1185.13 117.133 1187.53 128.733 1187.93 142.333L1188.33 155.667L1175 157.267C1131.53 162.733 1097.8 179.4 1084.47 202.2C1076.33 216.067 1074.6 239 1080.6 252.6C1088.73 270.467 1107.8 280.333 1134.73 280.333C1152.07 280.333 1174.6 272.867 1183.53 263.933L1187.67 260.067V266.067C1187.67 272.067 1191.13 280.333 1193.67 280.2C1194.47 280.2 1212.73 277.933 1234.33 275.267L1273.67 270.333V264.333C1273.67 258.467 1273.67 258.467 1268.07 257.267C1264.47 256.6 1260.87 254.6 1258.2 251.933C1249.8 243.533 1249.8 243.667 1249 184.333L1248.33 130.333L1244.6 122.867C1237.93 109.133 1224.87 99.5334 1205.67 94.2001C1196.47 91.6667 1158.87 90.4667 1145.4 92.3334ZM1187.8 207.133L1187.67 245L1184.33 247.933C1177.53 253.933 1161.13 255.4 1153.8 250.6C1151.93 249.4 1148.73 245.533 1146.73 242.067C1143.27 236.2 1143 234.6 1143 221.667C1143 209.667 1143.4 206.733 1146.2 201.267C1151.8 189.8 1161.27 180.867 1174.73 174.333C1181.4 171.133 1187.13 168.6 1187.4 168.867C1187.67 169.133 1187.8 186.333 1187.8 207.133Z" fill="#1F3F27"/>
<path d="M1505.8 92.3333C1471.53 98.4666 1446.07 119.667 1435.67 150.867C1431.4 163.8 1430.2 171.533 1430.2 189.667C1430.07 227.267 1442.07 253 1467.8 269.667C1477.13 275.667 1492.2 281 1506.33 283.133C1520.73 285.4 1548.47 283.933 1561 280.333C1591.4 271.667 1611.67 251.133 1619.93 220.733C1624.07 205.533 1624.07 176.333 1619.93 159.8C1611.67 126.867 1589.27 103.267 1557.67 94.6C1547.13 91.6666 1516.73 90.3333 1505.8 92.3333ZM1533.27 107.267C1549.27 112.067 1557.67 136.067 1558.73 180.333C1560.07 228.6 1552.07 259.4 1536.47 266.867C1519.13 275.4 1504.2 263.133 1497.67 235C1494.6 221.933 1493.4 175 1495.67 156.867C1498.47 134.6 1503.53 120.733 1512.07 112.6C1518.73 106.2 1524.6 104.6 1533.27 107.267Z" fill="#1F3F27"/>
<path d="M870.333 379C851.4 381.8 839.667 395.133 839.667 413.933C839.667 425.267 842.733 432.6 850.733 439.933C868.2 456.067 900.067 451 910.6 430.467C912.333 427.267 913.667 421.4 914.067 415.933C914.6 407.933 914.333 406.2 910.6 398.6C905.933 389.4 900.6 384.467 891.667 381.267C883.933 378.6 877.8 377.933 870.333 379ZM887.667 395.267C898.067 402.333 901 413.533 895.4 424.333C891.4 432.067 885.267 435.533 876.067 435.533C868.6 435.533 864.067 433.267 859.133 426.6C855.533 421.667 854.733 410.067 857.667 403.8C862.6 393.4 878.333 389 887.667 395.267Z" fill="#1F3F27"/>
<path d="M214.333 413.533V448.333H222.467H230.6L230.2 434.6L229.8 421L245.4 420.6L261 420.2V434.333V448.333H269H277L276.733 413.933L276.333 379.667L268.733 379.533L261 379.267V393.267V407.133L245.4 406.733L229.933 406.333L229.8 393L229.667 379.667L222.067 379.267L214.333 378.733V413.533Z" fill="#1F3F27"/>
<path d="M297.933 379.8C297.4 380.333 297 395.933 297 414.6V448.333H305H313V413.933V379.4L305.933 379.133C302.067 379 298.467 379.267 297.933 379.8Z" fill="#1F3F27"/>
<path d="M342.333 381.933C334.467 385.933 330.333 392.2 330.333 400.333C330.333 411.133 336.733 416.467 355.533 421C364.467 423.133 370.333 426.467 370.333 429.4C370.333 430.067 369.533 431.667 368.467 433.133C365.533 437 347.933 436.733 339.8 432.6C336.467 431 333.8 429.8 333.667 430.067C333.667 430.2 332.6 432.6 331.267 435.4C330.067 438.2 329 440.867 329 441.533C329 443.933 343 448.6 352.2 449.267C370.733 450.733 383.533 443.8 385.667 431.133C387.667 419.4 380.2 412.2 361.667 407.8C349.4 404.867 345.533 402.2 346.867 397.267C348.2 391.8 356.333 389.8 366.2 392.6C370.333 393.667 374.733 395 375.933 395.533C377.667 396.333 378.6 395.4 380.2 391.667C383.4 384.2 383 383.267 375.4 381C364.867 377.933 349.533 378.333 342.333 381.933Z" fill="#1F3F27"/>
<path d="M392.867 379.667C392.467 379.933 392.467 382.867 392.733 386.2L393.267 392.333H403.8H414.333V420.333V448.333H422.333H430.333V420.333V392.333H440.867H451.4L451.933 386.2C452.2 382.867 452.067 379.933 451.533 379.667C450.467 379 393.533 379 392.867 379.667Z" fill="#1F3F27"/>
<path d="M485 380.2C463.533 387.133 453.8 410.867 464.067 430.867C471.8 445.8 491.667 453.133 509.933 447.667C519.267 444.867 526.333 439.267 530.867 431C534.2 425 534.733 422.333 534.733 414.467C534.733 399.933 529.4 390.467 517.267 383.4C512.2 380.333 509.4 379.8 499.8 379.4C493.533 379.267 486.867 379.533 485 380.2ZM507.667 394.867C514.867 398.6 518.333 404.733 518.333 413.4C518.333 427 510.333 435.533 497.667 435.533C486.2 435.533 478.067 428.333 476.2 416.467C475.4 411.133 477.933 403.133 482.067 398.467C487.533 392.333 499.667 390.6 507.667 394.867Z" fill="#1F3F27"/>
<path d="M551.667 413.8V448.333H559.667H567.667V439V429.667H574.867H582.2L588.6 439L595 448.333H603.4C607.933 448.333 611.667 448.067 611.667 447.667C611.667 447.267 608.467 442.467 604.733 436.867L597.667 426.867L602.067 423.533C608.067 418.733 610.733 413 610.867 404.333C611 385.667 598.6 378.733 566.067 379.133L551.667 379.267V413.8ZM584.733 393.133C591.133 394.467 594.333 398.2 594.333 404.467C594.333 408.467 593.533 410.6 590.867 413C587.667 415.933 586.067 416.333 577.533 416.333H567.667V404.333V392.333H574.2C577.8 392.333 582.467 392.733 584.733 393.133Z" fill="#1F3F27"/>
<path d="M628.6 379.8C628.067 380.333 627.667 395.933 627.667 414.6V448.333H635.667H643.667V413.933V379.4L636.6 379.133C632.733 379 629.133 379.267 628.6 379.8Z" fill="#1F3F27"/>
<path d="M685.133 382.067C684.467 383.667 677.8 398.467 670.333 415C662.867 431.533 656.467 445.8 656.067 446.6C655.533 447.933 657.533 448.333 663.8 448.333H672.333L675 441.267L677.8 434.333L693.8 433.933L709.8 433.533L712.867 441L715.933 448.333H724.6C729.267 448.333 732.867 447.933 732.6 447.267C732.2 446.733 725.533 431.933 717.667 414.333C709.8 396.733 702.867 381.667 702.2 380.867C701.533 380.067 697.667 379.4 693.667 379.267C687.133 379.133 686.067 379.533 685.133 382.067ZM699.8 409.4L704.733 421L694.733 421.4C689.267 421.667 684.467 421.533 684.2 421.267C683.933 421 685.933 415.267 688.6 408.6C691.4 401.933 693.933 396.733 694.2 397.133C694.6 397.533 697.133 403 699.8 409.4Z" fill="#1F3F27"/>
<path d="M752.2 382.2C746.733 384.733 744.867 386.6 742.467 391.267C739 398.6 739 400.733 742.333 407.667C745.4 413.933 751.533 417.4 766.333 421.133C777.667 423.933 779.667 425.133 779.667 429C779.667 436.733 765.267 438.867 751.533 433.133L743.933 430.067L741.8 434.6C738.6 441.4 739 442.333 746.733 445.8C756.733 450.333 776.333 450.333 784.733 445.933C792.067 442.067 795.667 436.2 795.667 428.067C795.667 422.867 794.867 420.867 791.533 417C787.4 412.333 785.267 411.533 764.067 405.8C753.8 403 753.533 395.267 763.667 392.2C767.933 390.867 770.333 391 776.6 392.6C780.867 393.667 785.267 395 786.467 395.533C788.067 396.2 789.133 395 791 390.333C792.2 387 793.133 383.933 792.867 383.8C792.6 383.533 789.4 382.333 785.8 381.133C775.667 377.8 760.6 378.333 752.2 382.2Z" fill="#1F3F27"/>
<path d="M931 380.2C930.6 380.467 930.333 395.933 930.333 414.6V448.333H955.667H981V441.667V435H963.667H946.333V407.133V379.4H939C934.867 379.533 931.267 379.8 931 380.2Z" fill="#1F3F27"/>
<path d="M981 379.933C981 380.6 987.533 395.933 995.4 414.333L1009.8 447.667L1017.8 448.067C1025.53 448.467 1025.93 448.333 1027.53 444.733C1032.2 434.867 1054.2 383.4 1054.6 381.8C1054.87 380.333 1053.13 379.8 1047.53 379.4L1040.07 378.867L1029.67 403C1023.93 416.333 1018.87 426.6 1018.33 426.067C1017.67 425.533 1013 415.133 1007.93 403C1000.33 385.133 997.933 380.867 995.4 380.2C991 378.867 981 378.867 981 379.933Z" fill="#1F3F27"/>
<path d="M1066.33 413.533V448.333H1074.33H1082.33L1082.07 413.933L1081.67 379.667L1074.07 379.267L1066.33 378.733V413.533Z" fill="#1F3F27"/>
<path d="M1102.33 413.933V448.6L1124.73 448.067C1146.47 447.667 1147.13 447.533 1154.07 443.8C1162.6 439 1168.2 431.8 1170.33 422.733C1174.2 406.733 1167.4 390.867 1153.67 383.933C1147 380.6 1134.07 378.867 1117.67 379.133L1102.33 379.267V413.933ZM1145.27 395.933C1151.4 399.4 1156.07 408.733 1155.13 415.8C1154.07 423.8 1152.2 427.267 1146.73 431C1142.6 433.8 1139.93 434.467 1130.07 434.733L1118.33 435.267V413.667V391.933L1129.67 392.6C1137.13 393.133 1142.33 394.2 1145.27 395.933Z" fill="#1F3F27"/>
<path d="M1207.67 381.533C1205.8 385.267 1178.33 447 1178.33 447.8C1178.33 448.2 1182.07 448.333 1186.47 448.067L1194.6 447.667L1197.53 440.733L1200.33 433.667H1216.07H1231.8L1235 441L1238.33 448.333H1246.47C1253.93 448.333 1254.47 448.2 1253.67 445.667C1253.13 444.067 1246.33 428.6 1238.6 411.267L1224.33 379.667L1216.6 379.533C1210.87 379.4 1208.6 379.933 1207.67 381.533ZM1221.53 408.6C1224.2 415 1226.33 420.467 1226.33 420.867C1226.33 421.267 1221.8 421.667 1216.33 421.667C1210.87 421.667 1206.33 421.133 1206.33 420.467C1206.33 418.867 1215.93 396.067 1216.33 396.6C1216.6 396.867 1218.87 402.2 1221.53 408.6Z" fill="#1F3F27"/>
<path d="M1267.4 379.8C1266.73 380.333 1266.33 395.933 1266.33 414.6V448.333H1286.07C1307.8 448.333 1312.2 447.533 1321.27 441.8C1337.8 431.267 1340.6 406.2 1326.87 391C1318.87 382.2 1311.4 379.933 1288.33 379.267C1277.4 379 1267.93 379.133 1267.4 379.8ZM1302.87 393.667C1316.87 396.867 1323.27 410.6 1317 423.667C1312.87 432.067 1306.73 434.867 1292.73 435H1282.33V413.667V392.333H1290.07C1294.2 392.333 1300.07 393 1302.87 393.667Z" fill="#1F3F27"/>
<path d="M1371.67 381.667C1370.07 384.6 1342.33 447.267 1342.33 447.8C1342.33 448.067 1345.93 448.333 1350.33 448.333H1358.33L1361.67 441L1364.87 433.667H1380.33H1395.8L1399 441L1402.33 448.333H1410.87H1419.4L1416.47 441.933C1414.73 438.467 1408.07 423.667 1401.67 409C1395.13 394.333 1389.27 381.533 1388.6 380.6C1386.73 378.2 1373.13 379 1371.67 381.667ZM1385.53 408.2C1388.2 414.2 1390.33 419.8 1390.33 420.467C1390.33 421.133 1385.8 421.667 1380.33 421.667C1374.87 421.667 1370.33 421.267 1370.33 420.733C1370.33 419.267 1380.07 396.2 1380.47 396.733C1380.73 396.867 1383 402.067 1385.53 408.2Z" fill="#1F3F27"/>
<path d="M1438.33 381.933C1424.6 389 1422.47 407.267 1434.47 414.733C1437 416.2 1444.07 418.733 1450.33 420.333C1456.6 421.933 1462.73 424.2 1464.07 425.267C1467.27 428.333 1466.87 431.933 1463 434.467C1458.33 437.533 1443.67 436.467 1436.07 432.467L1430.47 429.667L1427.93 435.267C1424.87 442.067 1425.53 443.4 1434.07 446.333C1448.47 451.133 1463.67 450.6 1472.87 444.6C1479.8 440.2 1482.87 433.933 1481.93 426.067C1480.87 416.467 1474.33 411.533 1457.53 407.667C1442.87 404.333 1438.87 399.933 1445.13 394.2C1448.73 391 1461.93 391 1469.4 394.067L1474.47 396.2L1477 390.6C1479.4 385.4 1479.4 384.867 1477.4 383.267C1473.53 380.467 1466.07 379 1455 379C1446.47 379 1443 379.667 1438.33 381.933Z" fill="#1F3F27"/>
</svg>
