<svg width="656" height="832" viewBox="0 0 656 832" fill="none" xmlns="http://www.w3.org/2000/svg">
<path d="M306.267 1.7843C293.733 6.45097 284.933 15.5176 280.4 28.3176C276.8 38.851 277.333 77.1176 282 126.584C285.2 161.651 285.6 172.851 286.133 230.584C286.4 279.384 286.133 294.051 285.067 290.584C276.933 264.984 273.2 255.384 265.467 239.251C246.8 201.118 220.267 167.651 187.333 140.984C156.133 115.918 111.067 94.1843 71.6 85.3843L59.8667 82.851L60.2667 126.318L60.8 169.918L64.9333 185.384C75.3333 223.384 98.2667 271.118 119.867 299.251C153.067 342.451 232.8 386.584 278 386.584H286.667L286.8 477.518C286.933 527.651 287.333 583.918 287.867 602.584C288.267 621.251 288.667 636.718 288.533 636.984C288.533 637.118 279.467 631.384 268.533 624.051C203.2 580.584 133.067 553.651 56.6667 542.718C46.4 541.251 32.9333 539.651 26.6667 539.251C20.4 538.851 11.8667 538.184 7.73333 537.784L0 537.118V542.984C0 546.184 0.4 551.651 0.8 554.984L1.6 560.984L17.8667 561.918C78.4 565.251 131.467 577.518 182.667 600.051C219.067 616.184 244.8 631.518 282.933 659.918C290.4 665.518 291.067 667.918 285.067 667.918C282.667 667.918 272.667 669.118 262.8 670.584L244.8 673.251L232.667 665.384C175.2 628.184 107.467 604.851 38 598.584C30 597.918 20 597.251 15.8667 597.251H8.26667L10.9333 607.651L13.6 618.051L33.6 619.784C94.5333 624.718 151.733 642.584 204.533 672.984L215.2 679.118L204.533 682.184C198.8 683.918 188.133 687.118 180.933 689.384C172.133 692.051 167.333 692.984 166.267 692.184C162.933 689.518 136 678.184 119.333 672.584C93.6 663.784 67.3333 658.451 34.8 655.251L26.4 654.451L27.2 657.918C27.7333 659.784 29.7333 664.851 31.7333 668.984L35.3333 676.584L48 678.051C65.7333 680.184 81.3333 683.251 98.2667 688.051C117.2 693.518 140.533 702.584 139.067 703.918C138.533 704.584 132.533 707.518 125.733 710.451C105.2 719.518 70.6667 737.918 70.6667 739.918C70.6667 740.451 74.4 744.051 78.8 747.918L87.0667 755.118L92.5333 752.051C156.4 716.451 213.467 697.384 282 688.984C300.933 686.718 361.2 686.718 380 688.984C422.667 694.184 461.333 703.651 498.667 718.184C514.8 724.451 548.4 740.451 562.133 748.451L570.4 753.251L577.2 745.784C580.933 741.784 584 737.918 584 737.384C584 735.784 551.467 717.918 537.2 711.651C530 708.451 524 705.518 524 705.118C524 703.518 560.4 692.051 576.267 688.584C584.8 686.851 598.8 684.584 607.333 683.651L622.8 682.051L627.333 672.718C634 659.651 634 659.651 621.733 660.718C577.867 664.318 530.133 676.451 500.667 691.518L495.467 694.184L486.133 690.984C480.933 689.251 470.4 686.051 462.8 683.918C455.2 681.651 448.667 679.784 448.4 679.518C448.267 679.251 455.733 675.118 465.067 670.318C516.667 643.518 567.333 629.118 624.667 624.984L646.4 623.384L648.533 615.118C651.733 602.451 651.733 602.584 643.467 602.584C631.333 602.584 602.933 605.251 585.733 607.918C532 616.451 480 635.518 433.2 663.651L417.867 672.984L399.2 670.451C389.067 668.984 378.267 667.384 375.467 666.851L370.267 665.918L385.467 654.984C450 608.851 517.6 581.651 594.667 571.251C606.133 569.651 643.467 566.851 655.067 566.584C655.6 566.584 656 561.784 656 555.918V545.118L641.733 545.918C577.067 549.384 530.267 559.118 478 579.918C439.2 595.384 397.467 618.718 366.667 642.318L358 648.984L357.067 642.051C356.667 638.318 355.867 616.584 355.2 593.784L354.267 552.318L366.8 551.518C414.267 548.451 494 504.584 532.133 460.584C560.8 427.518 593.733 359.384 604.133 311.251C606.667 299.518 607.067 292.584 607.6 251.384L608.267 204.984L602.533 205.918C592.667 207.651 564.4 215.784 550.933 220.718C478.267 247.784 417.467 300.451 379.467 369.118C372 382.584 362.4 403.651 359.333 412.851C358 416.718 356.933 419.918 356.8 419.918C356.667 419.918 356.667 374.451 356.8 318.851C356.933 222.718 356.267 177.118 354 118.184C353.333 103.784 353.333 91.9176 353.867 91.9176C356.133 91.9176 387.867 99.1176 403.333 103.251C441.733 113.251 478 118.451 516.667 119.518C543.067 120.184 545.067 120.051 552.267 117.251C564.267 112.718 571.2 102.584 569.6 91.9176C569.2 88.7176 566.933 85.3843 562.133 80.451C554 72.451 546.267 69.1176 525.6 65.1176C484.267 57.251 431.6 43.7843 398.933 32.9843C376.267 25.3843 369.467 22.451 338.933 6.45097C326.267 -0.0823636 315.467 -1.68236 306.267 1.7843ZM327.733 24.451C331.2 26.1843 338.267 30.1843 343.333 33.1176C367.6 47.3843 444.4 70.9843 504.667 82.5843C530.933 87.651 537.6 89.251 543.067 92.1843C548.133 94.7176 548.4 94.9843 546 96.7176C543.2 98.851 540 98.9843 519.333 98.7176C489.2 98.1843 450.533 92.851 416 84.3176C376.4 74.7176 357.867 70.3176 353.2 69.651C347.067 68.851 341.333 71.651 336.4 78.1843L332.667 82.9843V104.451C332.667 116.318 333.6 153.251 334.533 186.584C336.267 246.318 336.133 301.918 333.867 511.918C333.067 581.518 334.133 634.984 336.933 658.184L337.733 665.251H324.4H311.067L310.133 644.184C309.6 632.718 308.667 520.051 308 393.918L307.067 164.584L303.467 127.251C301.6 106.718 299.6 79.1176 299.067 65.9176C298.133 39.3843 299.067 34.051 305.2 27.3843C311.6 20.451 318.133 19.5176 327.733 24.451ZM108 113.518C124.267 120.184 128 124.184 128 134.451C128 141.118 125.733 150.584 124.267 150.584C121.333 150.584 103.467 129.918 97.4667 119.651C90.2667 107.518 89.6 105.918 92.4 106.984C93.2 107.384 100.267 110.318 108 113.518ZM97.3333 146.851C104.667 157.784 107.6 163.518 106.4 164.718C106.133 164.984 103.733 164.584 101.2 163.918C98.8 163.118 92.6667 162.584 87.7333 162.584C76.1333 162.584 75.7333 162.051 75.0667 137.918L74.5333 119.251L82 127.251C86.1333 131.651 93.0667 140.451 97.3333 146.851ZM161.333 140.318C163.733 141.518 164.8 143.118 165.067 146.584C165.867 154.451 163.067 171.251 157.2 193.784L155.867 198.984L150.667 193.918C143.333 186.851 138.533 177.118 137.733 168.051C137.067 160.718 139.467 144.851 142.533 136.984L143.867 133.251L150.933 136.051C154.8 137.518 159.467 139.518 161.333 140.318ZM190.667 164.318C201.733 172.184 203.733 175.651 203.867 187.384C204 198.318 199.333 222.451 192.4 245.784C191.6 248.718 191.067 248.051 177.2 229.918L168.933 219.251L169.733 209.251C170.133 203.784 172.133 192.984 174 185.251C176 177.518 177.867 168.051 178.267 164.184C178.667 160.451 179.467 157.251 179.867 157.251C180.267 157.251 185.2 160.451 190.667 164.318ZM101.6 178.718C118.933 181.384 128.667 187.251 137.333 200.318C140.267 204.718 142.533 208.451 142.4 208.718C141.333 209.651 100 206.584 96 205.118C86.5333 201.918 81.3333 194.184 81.3333 183.251V177.251H86.8C89.7333 177.251 96.4 177.918 101.6 178.718ZM227.2 202.851C234.933 211.651 240 221.651 240 228.051C240 237.784 231.333 283.518 227.867 292.184C226 296.718 223.2 296.984 222.133 292.718C221.733 290.984 218.8 286.318 215.733 282.584C203.867 268.051 204.8 271.118 207.333 254.318C211.6 224.451 217.867 195.918 220 195.918C220.533 195.918 223.867 199.118 227.2 202.851ZM137.467 224.451C154.667 228.184 167.2 237.251 175.2 251.784C177.2 255.651 178.667 258.984 178.4 259.251C178.133 259.651 174.267 259.251 169.867 258.584C165.6 257.918 151.733 256.718 139.067 255.918C126.533 255.251 113.867 253.784 111.2 252.851C105.467 251.118 101.867 245.784 97.4667 233.251C96.1333 229.251 94.5333 224.718 93.8667 223.384C92.9333 220.851 93.4667 220.851 110.8 221.651C120.667 222.184 132.667 223.518 137.467 224.451ZM563.867 247.918C556.267 260.851 552.533 265.518 544.4 272.851C538.933 277.918 533.867 282.051 533.333 282.318C531.867 282.851 529.333 270.584 529.333 262.851C529.333 251.118 532.933 248.051 559.333 236.718C565.2 234.318 570.667 232.184 571.6 232.051C572.4 231.918 568.933 239.118 563.867 247.918ZM590.667 260.851C590.533 275.518 588.667 293.118 586.8 294.984C586.133 295.651 579.733 296.318 572.533 296.451C565.2 296.584 558 297.518 556.4 298.451C552.533 300.451 552.4 298.851 556.133 291.518C562.4 279.118 586.267 247.918 589.467 247.918C590.133 247.918 590.667 253.784 590.667 260.851ZM260.8 274.318C270 299.251 273.333 317.118 273.333 341.384C273.333 354.584 273.333 354.584 270 354.584C268.133 354.584 266.667 354.051 266.667 353.384C266.667 352.718 263.333 347.784 259.067 342.451C245.067 324.184 240.267 309.518 242.667 292.051C244.267 280.184 250.8 251.918 251.867 251.918C252.267 251.918 256.4 261.918 260.8 274.318ZM513.867 270.584C519.733 290.184 520 305.651 514.667 316.584C510.533 325.118 498.533 338.051 497.067 335.518C494.8 331.384 487.733 296.051 487.067 285.251C486.267 272.184 486 272.451 498 267.518C510.133 262.451 511.467 262.718 513.867 270.584ZM142 270.584C176.667 273.384 187.867 276.451 198.533 286.051C204.667 291.518 210.667 300.984 210.667 305.118C210.667 306.318 209.467 306.584 207.067 306.051C204.933 305.651 193.2 304.451 180.8 303.251C168.4 302.051 155.467 300.451 152.133 299.651C138.4 296.318 127.6 288.318 121.867 276.984C117.867 269.118 117.867 267.384 121.733 268.318C123.333 268.718 132.533 269.784 142 270.584ZM476.667 322.184C479.2 332.584 481.6 345.251 482.133 350.184C482.8 358.851 482.667 359.518 478.4 366.051C473.733 373.118 456.933 394.584 456.4 394.051C455.6 393.251 445.333 350.184 444.133 342.584C442 329.384 442.4 316.051 445.067 310.184C446.667 306.451 450.267 303.118 458.667 297.251L470 289.518L471.067 296.318C471.6 300.184 474.133 311.784 476.667 322.184ZM582.667 319.784C582.667 323.251 582 328.184 581.2 330.718C579.333 336.451 572.4 342.984 565.733 345.118C560.933 346.584 514.8 349.784 513.733 348.718C512.8 347.784 515.867 342.584 521.6 334.984C532.4 320.851 549.333 313.784 573.733 313.384L582.667 313.251V319.784ZM191.333 319.251C206 321.118 220 322.984 222.267 323.384C226 324.051 228.4 326.718 239.6 342.318C253.2 361.251 257.6 367.918 256.8 367.918C254.4 367.918 225.467 356.851 212.267 350.984C195.467 343.384 172.667 329.118 163.733 320.584C157.867 315.118 157.6 314.318 161.733 315.251C163.333 315.651 176.667 317.384 191.333 319.251ZM427.467 340.851C430.4 350.984 438.8 399.251 439.467 409.918L440.133 420.584L431.467 430.584C426 436.718 422.4 442.318 421.867 444.851C420.8 450.718 417.733 450.451 415.067 444.318C411.067 434.451 401.333 382.584 401.333 370.451C401.333 366.584 402.533 361.918 404.8 357.384C408.667 349.651 422.267 334.184 424.533 334.984C425.333 335.251 426.667 337.918 427.467 340.851ZM569.333 363.518C569.333 365.518 558.667 390.984 556.533 394.184C552.8 400.051 543.067 401.784 506 403.918C492.8 404.584 480 405.784 477.467 406.584C474.933 407.251 472.533 407.518 472.133 407.118C470.4 405.518 480.667 388.984 487.2 382.851C500.133 370.584 513.733 365.918 541.333 364.051C563.067 362.584 569.333 362.451 569.333 363.518ZM393.867 422.051C402.533 460.984 399.6 476.051 378 503.651C374 508.851 370.667 513.651 370.667 514.451C370.667 515.251 368.8 515.918 366.4 515.918H362.267L363.2 494.851C364.4 464.451 367.333 450.318 378.133 421.651C383.2 408.318 387.733 398.051 388.133 398.984C388.667 399.918 391.2 410.184 393.867 422.051ZM540 418.584C540 419.384 538.533 422.984 536.667 426.718C526.667 446.318 510 454.318 474.667 456.584C466.933 456.984 454.667 458.318 447.467 459.384C440.133 460.451 434 460.984 433.733 460.851C433.467 460.584 435.333 456.184 437.867 451.118C442.533 441.918 449.6 434.584 458.133 430.184C465.733 426.318 481.067 422.718 497.067 421.251C505.6 420.451 517.467 419.384 523.333 418.718C538.667 417.118 540 417.118 540 418.584ZM488 477.384C477.2 487.251 459.067 498.984 440.8 508.051C425.467 515.518 382.533 532.318 381.467 531.251C381.2 530.984 389.067 519.384 399.067 505.651L417.067 480.584L454.133 475.784C474.667 473.118 492.267 470.851 493.333 470.851C494.4 470.718 492 473.784 488 477.384Z" fill="#FAFAFA"/>
<path d="M300 722.584C248.667 727.251 198.534 740.184 153.333 760.584C138.4 767.251 117.733 778.051 116.8 779.784C116 781.118 132.4 793.251 134.933 793.251C136 793.251 143.2 790.051 150.933 786.051C190.8 765.784 237.2 751.918 288 744.984C307.067 742.451 363.334 742.851 384 745.651C432.134 752.318 469.334 763.384 512.667 783.918L528.8 791.518L536.934 784.718C541.467 780.984 545.2 777.518 545.2 777.118C545.334 776.184 522 764.451 507.334 757.918C471.334 741.918 427.334 729.918 385.334 724.584C365.6 722.051 317.867 720.984 300 722.584Z" fill="#FAFAFA"/>
<path d="M308.667 778.584C279.467 781.384 249.333 787.784 222 797.251C204.933 803.118 170.667 818.318 170.667 819.918C170.667 820.451 175.867 823.251 182.4 826.184L194 831.651L198.667 829.251C216.533 820.318 257.333 807.784 283.333 803.384C345.333 792.851 411.733 801.251 470.667 827.118C471.867 827.651 476.933 825.518 483.2 821.784L493.867 815.518L484.933 811.118C457.2 796.984 418.933 785.651 382.667 780.584C363.733 778.051 326.533 776.984 308.667 778.584Z" fill="#FAFAFA"/>
</svg>
